<svg
   version="1.1"
   id="wprigio-logo"
   width="480"
   viewBox="0 0 480 576"
   xmlns="http://www.w3.org/2000/svg">
  <g
     id="g8"
     transform="matrix(1.3333333,0,0,-1.3333333,0,576)">
    <g
       id="g10"
       transform="scale(0.1)">
      <path
         d="m 2160,3600 h -720 v 720 h 720 v -720"
         id="logo-i-square" />
      <path
         d="M 720,3600 H 0 V 1440 h 720 v 1440 h 720 v 720 H 720"
         class="logo-main"
         id="path14" />
      <path
         d="m 2160,3600 v -720 h 720 v -720 h -720 v 720 H 1440 V 1440 h 720 720 V 1080 C 2880,881.18 2718.82,720 2520,720 H 1440 V 0 h 1440 c 397.65,0 720,322.359 720,720 v 2160 720 H 2160"
         class="logo-main"
         id="path16" />
      <path
         d="M 296.051,0 H 130.684 L 3,722.16 h 189.438 l 48.14,-399.801 97.336,399.801 H 488.625 L 585.961,322.359 635.148,722.16 H 823.535 L 695.855,0 H 530.488 L 413.27,435.391 296.051,0"
         class="logo-main"
         id="path18" />
      <path
         d="m 1091.49,388.289 c 72.22,0 97.33,27.211 97.33,99.43 0,58.613 -25.11,90.011 -97.33,90.011 h -35.58 V 388.289 Z m -35.58,-144.43 V 0 H 882.172 v 722.16 h 242.808 c 141.29,0 237.59,-73.262 237.59,-234.441 0,-160.129 -95.25,-243.86 -237.59,-243.86 h -69.07"
         class="logo-main"
         id="path20" />
    </g>
  </g>
</svg>
