<svg xmlns="http://www.w3.org/2000/svg" width="284.982" height="58.062" viewBox="0 0 284.982 58.062"><g fill-rule="evenodd" clip-rule="evenodd"><path fill="#FFF" d="M32.309 4.022s.154.8.191 1.954c.107 3.281-.783 5.389-3.1 7.7-.473.472-1.006.964-1.603 1.472 7.919 4.926 12.055 15.695 7.458 23.222-6.205 10.142-18.5 7.834-25.218.893-7.033-7.271-6.1-16.675-1.05-23.647 5.212-7.194 14.79-11.839 23.322-11.594z"/><path fill="#99AD68" d="M13.215 45.341C6.403 43.113 1.542 36.494.351 29.558-2.936 10.414 17.436-6.86 37.785 2.732c.24 4.301-1.754 10.42-7.236 12.258 27.203 17.172 3.945 52.35-24.56 40.783-5.203-2.652-2.423-7.5 3.136-4.691 6.209 2.141 14.278 2.141 19.362-.666 3.279-1.793 6.213-4.244 8.277-7.375a23.744 23.744 0 0 0 1.963-3.631c.432-1.014 1.82-5.203.742-5.656-.27-.113-.412.207-.486.508-.688 2.781-2.039 5.188-3.895 7.355-2.18 2.545-4.93 4.482-8.402 5.748-4.064 1.482-8.775 1.668-15.252.252.425-.463 1.285-1.752 1.781-2.276zm18.779-40.89s.148.777.186 1.896c.104 3.182-.76 5.225-3.006 7.467-.459.459-.977.936-1.555 1.428 7.68 4.777 11.691 15.223 7.232 22.521-6.018 9.836-17.943 7.598-24.458.865-6.821-7.051-5.916-16.172-1.018-22.934C14.43 8.718 23.719 4.212 31.994 4.451z"/><path fill="#292929" d="M8.841 26.044c1.463-14.596 18.26-17.49 24.504 1.967 5.038 19.998-26.818 15.647-24.504-1.967zm13.696 9.604c13.264.484 6.91-13.08-1.801-16.078-8.632-2.971-13.43 16.078 1.801 16.078z"/><path fill="#FFF" d="M83.828 23.201c.2 6.289-6.813 5.813-7.008-.233-.087-2.674 2.094-3.404 3.528-3.308.623.042 1.51.405 2.232 1.044.681.598 1.214 1.444 1.248 2.497zM130.159 49.668c-3.403 4.119-8.195 7.858-13.609 6.379-3.079-1.062-5.082-3.992-6.077-7.561-.938-3.352-.987-7.264-.208-10.714 1.224-5.423 4.604-9.879 8.562-9.925 7.427.718 11.229 8.676 7.44 14.289-2.108 3.124-6.479 4.716-8.598 5.698-.803.373-1.438.546-1.33 2.064.256 3.646 6.628 3.587 10.643-4.449.37-.74 2.877-3.93 4.514-2.973 3.428 2.009-.917 6.686-1.337 7.192zm-15.591-5.003c4.462-1.384 8.118-5.121 8.45-7.166.63-3.866-5.479-7.185-7.736-.85-.572 1.615-.73 5.18-.714 8.016zM195.399 56.745c13.43-2.292 18.596-23.435 1.936-30.647-17.329-5.684-18.224 34.104-1.936 30.647zm-6.095-17.049c1.576-16.609 12.37-8.883 13.758 1.938 1.392 10.813-16.073 17.199-13.758-1.938zM159.106 34.748c-.326 3.357 4.747 20.719 1.1 21.021-2.15.176-3.471.4-4.036-.759-.537-1.101 1.579-10.037-.157-7.327-.398.622-.32.67-.964 1.824-5.975 10.7-14.082 7.855-18.796-.848-2.83-5.224-4.437-12.555-3.63-20.335 1.287-12.415 6.608-28.69 19.125-26.017 9.832 2.103 3.063 15.261-.376 11.898-8.123-17.818-24.32 25.211-6.397 35.607 5.175 3.001 9.601-6.786 8.54-11.093-.745-3.027-.92-3.131-2.422-2.681-1.169.352-5.17 3.786-6.289 2.748-1.4-1.299-2.157-6.415.648-6.563 3.249-.171 5.089.885 8.924-3.752 3.488-4.217 6.33-2.96 5.73 1.606-.265 1.997-.851 3.136-1 4.671zM249.208 51.05c1.414-4.764 3.066-12.539 2.012-15.415-1.582-4.312-7.613-5.893-10.592-1.48-1.827 2.706-1.874 12.393.451 18.06.555 1.354-.479 3.244-2.239 3.822-6.631 2.174-1.477-16.04-5.347-21.859-.836-1.25-1.85-1.375-1.965-2.31-.406-3.336 3.605-5.47 5.374-3.401.474.553.196 1.463.874 1.873 7.359-6.729 18.303-1.672 18.979 7.966.226 3.239-.73 10.274-2.587 14.725-.524 1.248-1.113 2.293-1.768 2.995-1.582 1.147-2.507.458-3.075.079-1.246-.837-.584-3.472-.117-5.055zM65.759 11.508c-4.36-7.252-14.128-3.102-12.042 5.268 2.801 11.231 16.476 13.921 21.515 23.934 2.766 5.497 1.033 10.996-3.2 13.407-4.342 2.474-11.683 3.454-16.189.147-2.26-1.657-2.072-2.909-3.266.21-.384 1.004-1.021 2.105-2.266 1.049-1.956-1.663-1.917-6.938 1.382-9.185 2.101-1.12 3.526-.528 5.472 1.396 4.725 3.882 10.732 2.729 12.29-.484 1-2.066-.008-5.298-2.017-7.554-2.902-3.263-7.481-6.075-11.25-10.476-4.968-5.807-8.76-12.305-6.283-18.705 2.157-5.57 8.352-10.7 15.662-7 4.319 2.187 8.538 7.178 6.12 12.133-1.667 3.418-6.825 4.516-9.209.979-1.438-2.132 4.488-3.147 3.281-5.119zM277.423 29.663c.625-5.353-1.582-20.915-5.631-21.304-1.09-.108-1.346-2.806-.6-4.407.744-1.603 2.493-2.109 5.408-.884 4.666 1.958 5.023 19.785 5.115 25.156.088 5.162-.158 11.562.617 16.451a18.767 18.767 0 0 0 1.325 4.54c.851 1.959 1.699 3.314 1.149 4.424-1.184 2.399-4.797 3.341-6.025 2.155-.852-.825-1.229-2.311-1.443-4.057-6.974 11.283-18.041 2.403-19.604-8.445-1.507-10.469 7.87-22.622 19.689-13.629zM266.526 50.45c8.777 6.463 11.563-10.186 7.154-16.441-5.35-7.583-18.892 7.139-7.154 16.441z"/><path fill="#FFF" d="M182.563 29.2c-2.021-1.574-6.289-3.441-10.199-3.032-5.457.571-10.504 4.284-9.988 10.082.223 2.476.469 13.044 1.404 17.39.319 1.482 1.157 2.872 2.607 3.265 1.363.373 3.094-.011 3.756-1.58.898-2.122-.093-4.089-.6-5.89-1.035-3.657-1.503-8.753-1.797-11.902-.602-6.473 9.102-7.362 11.395-3.594-1.648 2.576.738 4.195 3.726 1.854 2.696-2.111 1.614-5.092-.304-6.593zM214.776 34.096c-2.075 4.844-1.253 24.254 8.383 15.058 2.103-2.007 2.367-8.449 1.582-13.965-.184-1.271-1.216-5.144-1.564-6.309-.442-1.488.749-3.564 2.562-4.2 1.469-.512 3.127.407 3.729 1.898 1.006 2.486.342 6.561.234 8.229-.318 4.976-1.102 11.099.605 14.32.726 1.374 1.736 1.514 1.771 2.538.126 3.663-4.072 6.01-5.667 3.736-.424-.606-.07-1.607-.72-2.058-7.925 7.39-16.653 1.593-16.521-8.991.029-2.313-.282-6.088.527-9.363.625-2.55 1.023-4.978 2.305-6.358 1.679-1.26 2.548-.503 3.082-.087 1.18.92.297 3.814-.308 5.552zM78.362 36.996c-.101.063-.2.122-.296.175-2.98 1.663-2.082-1.731-.479-3.73 1.619-2.018 2.979-2.77 4.236-2.595 1.125.156 1.98.819 2.183 1.788.81 3.918-3.603 14.903 1.065 17.799.938.582 1.986.38 2.688-.438.877-1.021.998-2.689 2.094-3.021.494-.15.899.06 1.082 1.369.325 3.943-1.431 9.58-6.803 7.648-4.781-2.176-4.572-11.313-4.555-16.326 0-.342-.128-3.339-1.215-2.669z"/><path fill="#D8EAC1" d="M22.537 35.648c13.264.484 6.91-13.08-1.801-16.078-8.632-2.971-13.43 16.078 1.801 16.078z"/></g><path fill="#FFF" d="M111.674 30.82c-.445-1.035-1.154-1.692-2.268-1.65-2.622.208-3.134.104-5.585.251-2.452.146-4.55.251-6.295.315l1.024-9.013c.948-8.732.99-14.107.127-16.125-.652-1.528-1.697-2.126-3.133-1.795-2.237.414-2.769 4.28-3.015 11.546-.117 4.104.222 9.302.784 16.151-.534.131-2.165.605-3.236.923-1.071.317-1.925.654-2.562 1.009-.367.181-.548.561-.547 1.143.001.582.167 1.254.492 2.018.863 2.018 2.199 5.084 4.01 9.2 1.808 4.115 3.027 6.909 3.657 8.383 1.096 2.563 2.517 3.811 4.263 3.748 1.406-.052 2.246-.25 2.518-.591.274-.343.131-1.169-.43-2.478-1.538-3.6-2.569-7.163-3.092-10.689-.284-1.817-.426-5.352-.448-8.397 5.277-1.026 9.219-.922 12.359-1.758l.163-.059c1.212-.763.542-.368.962-.827.423-.458.483-.76.252-1.305zM95.578 48.083l-.188.206-.297.014s-.136-.229-.519-.906c-.383-.676-1.793-5.039-1.872-5.114-.078-.076-1.322-4.106-1.467-4.531-.148-.426-.034-.707-.034-.707s.158-.323.494-.575c.336-.253 1.591-.59 1.591-.59l.25-.012.215.343.143.859.356 2.146 1.096 6.163.366 2.343-.134.361z"/></svg>